@startuml
title
<font color=red size=16>BufferQueue Slots 状态切换图</font>

endtitle

header
<font color=red>Warning:</font>
Do not use for commercial purposes.
endheader
'-----------------------------------------------------------
[*] --> FREE
FREE --> DEQUEUED : dequeueBuffer
DEQUEUED --> FREE : cancelBuffer or detachBuffer
DEQUEUED --> QUEUED : queueBuffer
DEQUEUED --> QUEUED : attachBuffer
QUEUED --> ACQUIRED : acquireBuffer
QUEUED --> FREE : another buffer is queued async
ACQUIRED --> FREE : releaseBuffer or detachBuffer

'-----------------------------------------------------------
right footer Generated by Yaoguang
@enduml