@startuml
title
<font color=red size=16>EventThread类图</font>

endtitle

header
<font color=red>Warning:</font>
Do not use for commercial purposes.
endheader
skinparam backgroundcolor Beige



class "Callback" as VC {
    onVSyncEvent()
}

class EventThreadConnection {
    EventThread mEventThread
   status_t postEvent(DisplayEventReceiver::Event& event)
}
class EventThread {
    std::vector<wp<EventThreadConnection>>\n    mDisplayEventConnections
    VSyncSource* mVSyncSource
    threadMain()
}
EventThread -> VSyncSource
EventThread <--> EventThreadConnection
EventThread -up-|> VC

class DispSync {
    DispSyncThread mThread
}
DispSync -up-> DispSyncThread
class Thread
class DispSyncThread {
    threadLoop()
    addListener()
}
DispSyncThread -up-|> Thread
DispSyncThread +-- Callback
class Callback {
    onDispSyncEvent()
}
class VSyncSource{
    setVSyncEnabled()
}
VSyncSource +-up- VC

class DispSyncSource {
    DispSync* mDispSync
}
DispSyncSource -up-> DispSync
DispSyncSource -up-|> VSyncSource
DispSyncSource -up-|> Callback

right footer Generated by Yaoguang
@enduml